<svg xmlns="http://www.w3.org/2000/svg" width="18.95" height="20.588" viewBox="0 0 18.95 20.588">
  <g id="Grupo_1991" data-name="Grupo 1991" transform="translate(-259.801 -36.995)">
    <path id="Trazado_838" data-name="Trazado 838" d="M278.405,50.111a1.973,1.973,0,0,1-.5-1.98v-.8c0-.84-.008-.874-.008-.874a2,2,0,0,1,.5-2.024c.458-.262.479-1.095.047-1.85l-.468-.817c-.432-.757-1.166-1.159-1.63-.9a2.2,2.2,0,0,1-2.085-.5l-1.471-.846c-.805-.332-1.465-1.035-1.465-1.563s-.712-.96-1.583-.96h-.917c-.871,0-1.583.425-1.583.945s-.662,1.209-1.47,1.532l-1.542.844a2.176,2.176,0,0,1-2.038.531c-.44-.25-1.153.162-1.586.919l-.467.817c-.432.755-.435,1.576-.006,1.821s.626,1.142.436,1.991c0,0-.015.073-.015.935v.826c.181.851-.016,1.745-.437,1.985s-.411,1.056.02,1.812l.467.818c.431.756,1.128,1.179,1.548.941a2.166,2.166,0,0,1,2,.556l1.62.916c.807.326,1.469,1,1.469,1.5s.712.9,1.583.9h.917c.871,0,1.583-.413,1.583-.918s.658-1.191,1.463-1.527l1.553-.918a2.187,2.187,0,0,1,2.043-.53c.441.252,1.157-.159,1.589-.916l.468-.818C278.868,51.2,278.854,50.368,278.405,50.111ZM269.276,54.8a7.587,7.587,0,1,1,7.587-7.587A7.587,7.587,0,0,1,269.276,54.8Z" transform="translate(0)" fill="#fff"/>
    <path id="Trazado_839" data-name="Trazado 839" d="M276.185,54.14a1.255,1.255,0,1,1,0-2.51h1.543a2.449,2.449,0,0,0-4.361.306h-3.089a2.449,2.449,0,0,0-4.361-.306h1.543a1.255,1.255,0,1,1,0,2.51h-1.543a2.449,2.449,0,0,0,4.361-.306h3.089a2.45,2.45,0,0,0,4.361.306Z" transform="translate(-2.546 -5.595)" fill="#fff"/>
  </g>
</svg>
