<svg xmlns="http://www.w3.org/2000/svg" width="18.08" height="19.642" viewBox="0 0 18.08 19.642">
  <g id="Grupo_2094" data-name="Grupo 2094" transform="translate(-52.218 -180.092)">
    <path id="Trazado_834" data-name="Trazado 834" d="M181.184,49.509a1.885,1.885,0,0,1-.481-1.889v-.765c0-.8-.008-.834-.008-.834a1.908,1.908,0,0,1,.476-1.931c.436-.25.457-1.045.044-1.765l-.446-.78c-.412-.722-1.112-1.106-1.555-.855a2.1,2.1,0,0,1-1.99-.481l-1.4-.807c-.768-.317-1.4-.988-1.4-1.491s-.679-.916-1.51-.916h-.875c-.83,0-1.51.405-1.51.9s-.632,1.153-1.4,1.461l-1.471.805a2.076,2.076,0,0,1-1.944.506c-.42-.239-1.1.154-1.513.877l-.445.78c-.413.721-.414,1.5-.006,1.737s.6,1.09.416,1.9c0,0-.014.07-.014.892v.789c.173.812-.015,1.665-.417,1.894s-.393,1.008.019,1.729l.446.78c.412.722,1.076,1.125,1.477.9a2.066,2.066,0,0,1,1.907.53l1.546.874c.77.311,1.4.953,1.4,1.428s.68.861,1.51.861h.875c.831,0,1.51-.394,1.51-.876s.628-1.137,1.4-1.457l1.482-.876a2.085,2.085,0,0,1,1.949-.506c.421.24,1.1-.152,1.517-.874l.446-.78C181.626,50.545,181.612,49.754,181.184,49.509Zm-8.71,4.471a7.239,7.239,0,1,1,7.238-7.239A7.239,7.239,0,0,1,172.475,53.98Z" transform="translate(-111.216 143.097)" fill="#fff"/>
    <g id="Grupo_1982" data-name="Grupo 1982" transform="translate(56.617 186.818)">
      <path id="Trazado_835" data-name="Trazado 835" d="M175.977,52.538,180.62,50v-.354a.577.577,0,0,0-.575-.575h-8.138a.577.577,0,0,0-.575.575v.324Z" transform="translate(-171.332 -49.073)" fill="#fff"/>
      <path id="Trazado_836" data-name="Trazado 836" d="M176.173,54.836a.412.412,0,0,1-.4,0l-4.444-2.455v3.715a.577.577,0,0,0,.575.575h8.138a.577.577,0,0,0,.575-.575V52.407Z" transform="translate(-171.332 -50.538)" fill="#fff"/>
    </g>
  </g>
</svg>
