<svg id="Grupo_1952" data-name="Grupo 1952" xmlns="http://www.w3.org/2000/svg" width="33.805" height="18.895" viewBox="0 0 33.805 18.895">
  <path id="Trazado_807" data-name="Trazado 807" d="M70.883,95.552a1.362,1.362,0,0,1-.154-.116,2.817,2.817,0,0,1-.783-1.61,2.086,2.086,0,0,1,.107-.973,3.238,3.238,0,0,1,.838-1.379,7.8,7.8,0,0,1,.793-.72A5.777,5.777,0,0,1,73.4,89.98a11.4,11.4,0,0,1,2.412-.384,9.8,9.8,0,0,1,2.6.178,10.049,10.049,0,0,1,2.5,1.015c-.221.084-.407.169-.6.226a2.673,2.673,0,0,1-.466.073.42.42,0,0,1-.187-.024,1.938,1.938,0,0,0-.951-.094,5.2,5.2,0,0,0-.946.174,3.928,3.928,0,0,0-1.578.965,12.351,12.351,0,0,0-1.892,2.41c-.126.208-.268.407-.383.621s-.217.461-.328.7a1.647,1.647,0,0,0,.525.188c.167.039.339.053.507.089a2.031,2.031,0,0,0,.805-.1c0-.16,0-.322,0-.484a2.079,2.079,0,0,1,.594-1.432,6.77,6.77,0,0,1,1.462-1.256c.482-.281.966-.558,1.462-.813a17.22,17.22,0,0,1,3.621-1.322,9.941,9.941,0,0,1,3.066-.3,5.867,5.867,0,0,1,1.534.27c.182.061.375.091.563.136.075.018.167.019.168.129a.228.228,0,0,1-.139.242c-.139.057-.276.117-.414.178a6.463,6.463,0,0,0-2.171,1.62c-.563.619-1.082,1.279-1.638,1.906-.32.36-.589.755-.873,1.141a5.7,5.7,0,0,1-1.034,1.085,4.774,4.774,0,0,1-.649.414,6.413,6.413,0,0,1-1.845.74,3.5,3.5,0,0,1-1.6-.024,2.639,2.639,0,0,1-1.176-.639,2.956,2.956,0,0,1-.715-.81,5.485,5.485,0,0,1-2.51-.2c-.2.619-.4,1.234-.605,1.848a16.366,16.366,0,0,0-.443,1.767,5.866,5.866,0,0,0-.088,1.708,2.787,2.787,0,0,0,2.929,2.944,5.742,5.742,0,0,0,3.043-1.288,14.806,14.806,0,0,0,1.856-2.3,8.106,8.106,0,0,0,.582-1.1c.339-.71.666-1.426.994-2.141a.739.739,0,0,1,.2-.271c.241-.2.473-.413.739-.647-.048.255-.078.483-.135.7-.114.442-.224.886-.368,1.319a22.17,22.17,0,0,1-2.784,5.426,11.5,11.5,0,0,1-2.08,2.392,3.728,3.728,0,0,1-1.523.821,4.088,4.088,0,0,1-1.933.207,4.37,4.37,0,0,1-2.473-1.087,6.368,6.368,0,0,1-1.5-2.389,8.159,8.159,0,0,1-.239-.933,10.611,10.611,0,0,1-.166-1.38,9.918,9.918,0,0,1,.248-2.638,12.93,12.93,0,0,1,.307-1.27c.206-.594.46-1.171.71-1.749C70.534,96.222,70.7,95.914,70.883,95.552Zm.634-1.057c.165-.219.314-.429.475-.629s.354-.413.528-.621a9.364,9.364,0,0,1,2.319-2.051,8.253,8.253,0,0,1,2.238-1.011c.026-.006.046-.033.092-.067-.083-.006-.132-.011-.182-.012a9.17,9.17,0,0,0-1.9.159,14.152,14.152,0,0,0-1.507.412,4.627,4.627,0,0,0-1.622.9,2.5,2.5,0,0,0-.915,1.485A1.381,1.381,0,0,0,71.518,94.5Zm12.546-2.886-.017-.036c-.117.019-.236.032-.351.058a6.479,6.479,0,0,0-1.429.575c-.352.175-.683.391-1.031.575a11.757,11.757,0,0,0-1.8,1.24,13.784,13.784,0,0,1-2.157,1.439,3.426,3.426,0,0,1-.528.235,5.426,5.426,0,0,1-1.142.36c-.131.013-.161.117-.118.239s.066.253.1.4l.222-.042a7.815,7.815,0,0,0,1.547-.509c.328-.139.647-.3.961-.475a14.345,14.345,0,0,0,2.227-1.676,10.345,10.345,0,0,1,.926-.764c.81-.526,1.642-1.018,2.464-1.524C83.982,91.675,84.021,91.641,84.063,91.609Z" transform="translate(-55.156 -89.516)" fill="#00b1ed"/>
  <path id="Trazado_808" data-name="Trazado 808" d="M51.138,92a.936.936,0,0,0,.267-.938.752.752,0,0,0-.234-.309,1.816,1.816,0,0,0-1.258-.357,4.412,4.412,0,0,0-2.188.75A15.259,15.259,0,0,0,42.883,96.8a12.915,12.915,0,0,0-.723,1.945,7.3,7.3,0,0,0-.248,2.2,6.087,6.087,0,0,0,.155,1.489,3.018,3.018,0,0,0,1,1.685c1.768,1.616,4.583.531,5.187.082.387-.287.771-.58,1.161-.862q.544-.393,1.1-.766a1.007,1.007,0,0,1,.839-.2.4.4,0,0,1,.2.4,1.388,1.388,0,0,1-.151.459c-.248.4-.513.782-.782,1.162a10.985,10.985,0,0,1-3.38,3.206,7.637,7.637,0,0,1-3.185.747,5.6,5.6,0,0,1-5.168-4.457,7.363,7.363,0,0,1-.108-2.935,12.913,12.913,0,0,1,1.021-3.346,16.327,16.327,0,0,1,2.162-3.562A13.111,13.111,0,0,1,44.9,91.26a10.845,10.845,0,0,1,2.4-1.325,7.614,7.614,0,0,1,2.19-.478A3.833,3.833,0,0,1,51.5,89.9a1.109,1.109,0,0,1,.613.862,2.977,2.977,0,0,1-.016.884,3.654,3.654,0,0,1-.665,1.538,1.883,1.883,0,0,1-.673.632,1.174,1.174,0,0,1-1.145-.133A1.326,1.326,0,0,1,49.3,92.55a2.047,2.047,0,0,1,.663-1.034C50.509,91.09,51.2,91.366,51.138,92Z" transform="translate(-38.675 -89.453)" fill="#00b1ed"/>
  <path id="Trazado_809" data-name="Trazado 809" d="M97.185,110.007c.04.022.07.039.1.054a.309.309,0,0,1,.207.356,1.31,1.31,0,0,1-.527.9.827.827,0,0,1-.572.2c-.45-.005-.38-.829-.352-.923a3.419,3.419,0,0,1,1.617-1.863,3.344,3.344,0,0,1,1.57-.4,2.122,2.122,0,0,1,.968.138,1.681,1.681,0,0,1,1.055,1.311,2.212,2.212,0,0,1-.444,1.775,8.268,8.268,0,0,1-1.6,1.573,11.986,11.986,0,0,0-1.04.928c-.206.2-.387.421-.578.634-.032.036-.057.079-.1.141a1.1,1.1,0,0,0,.177.036,1.589,1.589,0,0,1,1.207.649,8.775,8.775,0,0,1,.572.826.943.943,0,0,0,.391.319.343.343,0,0,0,.416-.073c.173-.191.341-.386.512-.578.067-.075.13-.153.2-.221a.294.294,0,0,1,.386-.028.24.24,0,0,1,.056.361,6.983,6.983,0,0,1-.434.611c-.13.17-.273.33-.412.494a1.452,1.452,0,0,1-.587.453.817.817,0,0,1-.921-.222,2.308,2.308,0,0,1-.253-.318,3.728,3.728,0,0,0-.845-.934,1.17,1.17,0,0,0-.639-.22,2.655,2.655,0,0,0-.9.059,1.387,1.387,0,0,0-.324.159,5.49,5.49,0,0,0-1.151,1.086,1.5,1.5,0,0,1-.695.482.524.524,0,0,1-.62-.147.606.606,0,0,1-.086-.609,6.032,6.032,0,0,1,.754-1.44,8.623,8.623,0,0,1,1.23-1.455c.391-.345.8-.669,1.212-.991.377-.3.768-.573,1.149-.864a7.1,7.1,0,0,0,1.233-1.16,5.328,5.328,0,0,0,.509-.843.815.815,0,0,0,.088-.541.569.569,0,0,0-.537-.495,2.923,2.923,0,0,0-1.5.268A.827.827,0,0,0,97.185,110.007Z" transform="translate(-68.35 -99.667)" fill="#00b1ed"/>
  <path id="Trazado_810" data-name="Trazado 810" d="M54.1,109.868a7.781,7.781,0,0,0,1.85.622,3.952,3.952,0,0,0,1.552.041.881.881,0,0,0,.166-.044c.018-.006.032-.024.08-.062-.159-.019-.285-.039-.413-.05a8.269,8.269,0,0,1-1.441-.222,6.149,6.149,0,0,1-1.746-.735,1.085,1.085,0,0,1,.486-.652,1.888,1.888,0,0,1,1.44-.428,7.836,7.836,0,0,1,1.762.568,2.922,2.922,0,0,0,1.44.207,2.205,2.205,0,0,0,.874-.44c.106-.084.2-.18.306-.27s.328-.22.328-.009a7.41,7.41,0,0,1-2.013,2.323,5.008,5.008,0,0,1-2,.73,2.86,2.86,0,0,1-1.77-.288,1.569,1.569,0,0,1-.907-1.153.43.43,0,0,1-.007-.064A.519.519,0,0,1,54.1,109.868Z" transform="translate(-47.016 -99.642)" fill="#00b1ed"/>
  <path id="Trazado_811" data-name="Trazado 811" d="M104.212,102.145a2.817,2.817,0,0,1,1.237-1.012,6.52,6.52,0,0,1,.966-.283,2.008,2.008,0,0,0-.823-.061,1.978,1.978,0,0,0-.846.274,3.033,3.033,0,0,0-.682.566.661.661,0,0,1-.01-.155.983.983,0,0,1,.623-.786,3.232,3.232,0,0,1,1.762-.172,3.77,3.77,0,0,1,1.385.486c.135.122-.093.31-.284.322a1.92,1.92,0,0,0-1.306.615,3.1,3.1,0,0,1-.5.4,1.157,1.157,0,0,1-1.123.123A.656.656,0,0,1,104.212,102.145Z" transform="translate(-74.061 -95.414)" fill="#00b1ed"/>
</svg>
