<svg xmlns="http://www.w3.org/2000/svg" width="33" height="33" viewBox="0 0 33 33"><defs></defs><path d="M291.264,508.668q-.2.033-.409.061Q291.061,508.7,291.264,508.668Zm0,0" transform="translate(-271.982 -475.877)"/><path d="M299.534,507.793l-.195.034Zm0,0" transform="translate(-279.918 -475.057)"/><path d="M278.089,510.34q-.239.027-.48.047Q277.851,510.367,278.089,510.34Zm0,0" transform="translate(-259.595 -477.442)"/><path d="M286.676,509.738l-.23.029Zm0,0" transform="translate(-267.86 -476.878)"/><path d="M306.836,506.41l-.172.036Zm0,0" transform="translate(-286.767 -473.763)"/><path d="M324.623,502.113l-.139.039Zm0,0" transform="translate(-303.432 -469.74)"/><path d="M319.21,503.543l-.151.039Zm0,0" transform="translate(-298.358 -471.078)"/><path d="M312.227,505.254l-.161.036Zm0,0" transform="translate(-291.819 -472.68)"/><path d="M273.738,511.09l-.258.019Zm0,0" transform="translate(-255.735 -478.144)"/><path class="a" style="fill:#3b5999" d="M33,16.4a16.5,16.5,0,1,0-16.5,16.4c.1,0,.193,0,.29,0V20.024H13.245V15.919H16.79V12.9c0-3.5,2.152-5.41,5.3-5.41a29.365,29.365,0,0,1,3.178.161v3.662H23.1c-1.711,0-2.042.808-2.042,1.994v2.615h4.091l-.533,4.105H21.055V32.158A16.42,16.42,0,0,0,33,16.4Zm0,0"/><path d="M265.4,511.43q-.255.016-.511.025Q265.147,511.447,265.4,511.43Zm0,0" transform="translate(-247.701 -478.463)"/><path d="M260.775,511.836l-.271.007Zm0,0" transform="translate(-243.601 -478.843)"/></svg>