<svg xmlns="http://www.w3.org/2000/svg" width="95.75" height="34.45" viewBox="0 0 95.75 34.45">
  <g id="Grupo_1880" data-name="Grupo 1880" transform="translate(-102.827 -54.583)">
    <path id="Trazado_376" data-name="Trazado 376" d="M195.865,50.583a12.676,12.676,0,0,0-12.676,12.676c0,9.355,10.918,21.774,12.676,21.774s12.676-12.419,12.676-21.774A12.676,12.676,0,0,0,195.865,50.583Zm0,22.392a9.716,9.716,0,1,1,9.716-9.716A9.716,9.716,0,0,1,195.865,72.975Z" transform="translate(-80.362 4)" fill="#fff"/>
    <g id="Grupo_256" data-name="Grupo 256" transform="translate(108.31 59.445)">
      <path id="Trazado_377" data-name="Trazado 377" d="M250.437,107.645a1.5,1.5,0,0,1-.382-1.5v-.608c0-.638-.006-.663-.006-.663a1.519,1.519,0,0,1,.378-1.536c.347-.2.364-.831.035-1.4l-.355-.62c-.328-.574-.885-.88-1.237-.68a1.673,1.673,0,0,1-1.583-.383L246.17,99.6c-.611-.252-1.112-.786-1.112-1.187s-.54-.729-1.2-.729h-.7c-.661,0-1.2.323-1.2.717s-.5.917-1.116,1.162l-1.17.641a1.653,1.653,0,0,1-1.547.4c-.334-.19-.875.123-1.2.7l-.354.62c-.328.574-.33,1.2,0,1.382s.475.867.331,1.512c0,0-.011.055-.011.71v.627c.137.646-.012,1.324-.332,1.507s-.312.8.015,1.375l.354.621c.327.574.856.895,1.175.714a1.644,1.644,0,0,1,1.517.422l1.23.7c.613.247,1.115.759,1.115,1.136s.541.686,1.2.686h.7c.661,0,1.2-.313,1.2-.7s.5-.9,1.111-1.159l1.179-.7a1.66,1.66,0,0,1,1.551-.4c.335.191.878-.121,1.207-.7l.355-.621C250.789,108.469,250.778,107.84,250.437,107.645Zm-6.993,2.088a4.262,4.262,0,1,1,4.262-4.262A4.263,4.263,0,0,1,243.444,109.732Z" transform="translate(-236.314 -97.688)" fill="#00bff2"/>
      <path id="Trazado_378" data-name="Trazado 378" d="M290.358,155.447a1.778,1.778,0,1,1-1.778,1.778A1.778,1.778,0,0,1,290.358,155.447Z" transform="translate(-283.185 -149.485)" fill="#00bff2"/>
    </g>
    <path id="Trazado_379" data-name="Trazado 379" d="M90.7,434.591a6.412,6.412,0,0,1-1.582,4.635,6.056,6.056,0,0,1-4.573,1.643,22.154,22.154,0,0,1-5.223-.638,1.361,1.361,0,0,1-.625-.27.632.632,0,0,1-.135-.441V422.331a.453.453,0,0,1,.159-.343.513.513,0,0,1,.356-.147h2.967a.5.5,0,0,1,.49.491v4.242q.54-.073,1.091-.123t.92-.049a5.921,5.921,0,0,1,4.634,1.692,6.61,6.61,0,0,1,1.52,4.586Zm-3.973-1.9a6.779,6.779,0,0,0-.1-1.186,2.755,2.755,0,0,0-.343-.953,1.675,1.675,0,0,0-.662-.624,2.313,2.313,0,0,0-1.079-.22q-.442,0-1.006.037t-1.005.086v7.626q.343.049.871.1t1.14.049a2.308,2.308,0,0,0,1.079-.22,1.675,1.675,0,0,0,.662-.624,2.756,2.756,0,0,0,.343-.953,6.935,6.935,0,0,0,.1-1.21Z" transform="translate(58 -357.643)" fill="#fff"/>
    <path id="Trazado_380" data-name="Trazado 380" d="M187.034,470.294a.5.5,0,0,1-.49.491h-2.992a.5.5,0,0,1-.491-.491v-13.07a.5.5,0,0,1,.491-.49h2.992a.5.5,0,0,1,.49.49Z" transform="translate(-32.252 -387.78)" fill="#fff"/>
    <path id="Trazado_381" data-name="Trazado 381" d="M243.116,426.867a.392.392,0,0,1-.1.245l-4.561,6.2,4.536,6.817a.339.339,0,0,1-.27.515h-3.7a.8.8,0,0,1-.331-.061.761.761,0,0,1-.282-.282l-3.531-5.762v5.591a.51.51,0,0,1-.147.355.453.453,0,0,1-.343.16H231.42a.547.547,0,0,1-.515-.515v-17.8a.453.453,0,0,1,.159-.343.513.513,0,0,1,.356-.147h2.967a.5.5,0,0,1,.49.491v10.25l3.727-5.615a.763.763,0,0,1,.319-.294.816.816,0,0,1,.319-.074h3.507Q243.116,426.6,243.116,426.867Z" transform="translate(-73.573 -357.643)" fill="#fff"/>
    <path id="Trazado_382" data-name="Trazado 382" d="M335.437,463.167q0,.588-.515.589H327.1v.049a4.048,4.048,0,0,0,.123,1,2.18,2.18,0,0,0,.417.85,2.088,2.088,0,0,0,.772.583,2.917,2.917,0,0,0,1.214.219q.588,0,1.251-.024l1.312-.049q.65-.024,1.214-.061t.932-.086h.074q.465,0,.466.394V468.5a.816.816,0,0,1-.1.444.663.663,0,0,1-.417.223,20.2,20.2,0,0,1-2.3.445,21.358,21.358,0,0,1-2.722.148,7.928,7.928,0,0,1-2.207-.319,5.411,5.411,0,0,1-1.986-1.054,5.269,5.269,0,0,1-1.422-1.949,7.324,7.324,0,0,1-.539-2.98v-1.717a8.106,8.106,0,0,1,.417-2.673,5.517,5.517,0,0,1,1.214-2.035,5.38,5.38,0,0,1,1.949-1.287,7.123,7.123,0,0,1,2.624-.454,6.622,6.622,0,0,1,2.636.491,5.289,5.289,0,0,1,1.9,1.349,5.647,5.647,0,0,1,1.14,2.035,8.34,8.34,0,0,1,.38,2.574Zm-3.874-1.962a3.047,3.047,0,0,0-.589-2.048,2.036,2.036,0,0,0-1.618-.674,2.094,2.094,0,0,0-1.643.687,2.968,2.968,0,0,0-.613,2.035v.1h4.463Z" transform="translate(-153.265 -386.538)" fill="#fff"/>
    <path id="Trazado_383" data-name="Trazado 383" d="M443.241,441.005a5.244,5.244,0,0,1-3.764,3.274,12.086,12.086,0,0,1-5.517,0,5.524,5.524,0,0,1-2.244-1.116,5.363,5.363,0,0,1-1.508-2.158,9.319,9.319,0,0,1-.552-3.47V426.624a.433.433,0,0,1,.147-.331.493.493,0,0,1,.343-.135h3.212a.493.493,0,0,1,.343.135.434.434,0,0,1,.148.331v10.912a8.3,8.3,0,0,0,.135,1.606,2.615,2.615,0,0,0,.466,1.1,1.957,1.957,0,0,0,.883.637,4.7,4.7,0,0,0,2.771,0,1.957,1.957,0,0,0,.883-.637,2.733,2.733,0,0,0,.478-1.1,7.652,7.652,0,0,0,.147-1.606V426.624a.433.433,0,0,1,.147-.331.493.493,0,0,1,.343-.135h3.188a.54.54,0,0,1,.356.135.42.42,0,0,1,.159.331v10.912A9.139,9.139,0,0,1,443.241,441.005Z" transform="translate(-245.228 -361.372)" fill="#00bff2"/>
  </g>
</svg>
