<svg xmlns="http://www.w3.org/2000/svg" width="87.805" height="26.943" viewBox="0 0 87.805 26.943">
  <g id="Grupo_1888" data-name="Grupo 1888" transform="translate(-136.563 -64.197)">
    <path id="Trazado_379" data-name="Trazado 379" d="M95.749,439.894a9.079,9.079,0,0,1-2.239,6.563q-2.24,2.326-6.475,2.326a31.366,31.366,0,0,1-7.4-.9,1.927,1.927,0,0,1-.886-.382.9.9,0,0,1-.191-.625V422.535a.642.642,0,0,1,.225-.486.727.727,0,0,1,.5-.208h4.2a.712.712,0,0,1,.694.695v6.006q.764-.1,1.545-.174t1.3-.069q4.409,0,6.562,2.4a9.359,9.359,0,0,1,2.152,6.493Zm-5.625-2.686a9.6,9.6,0,0,0-.139-1.679,3.9,3.9,0,0,0-.486-1.35,2.371,2.371,0,0,0-.937-.883,3.275,3.275,0,0,0-1.527-.311q-.626,0-1.424.052t-1.423.121v10.8q.486.07,1.233.139t1.615.069a3.268,3.268,0,0,0,1.527-.311,2.372,2.372,0,0,0,.937-.883,3.9,3.9,0,0,0,.486-1.35,9.819,9.819,0,0,0,.139-1.714Z" transform="translate(58 -357.643)" fill="#00364b"/>
    <path id="Trazado_380" data-name="Trazado 380" d="M188.686,475.934a.711.711,0,0,1-.694.695h-4.236a.712.712,0,0,1-.695-.695V457.428a.713.713,0,0,1,.695-.694h4.236a.712.712,0,0,1,.694.694Z" transform="translate(-26.327 -385.801)" fill="#00364b"/>
    <path id="Trazado_381" data-name="Trazado 381" d="M248.195,428.957a.555.555,0,0,1-.138.347l-6.458,8.784,6.423,9.652a.4.4,0,0,1,.07.277.4.4,0,0,1-.451.452H242.4a1.127,1.127,0,0,1-.469-.087,1.077,1.077,0,0,1-.4-.4l-5-8.159v7.916a.723.723,0,0,1-.208.5.641.641,0,0,1-.486.226h-4.2a.774.774,0,0,1-.729-.729V422.535a.642.642,0,0,1,.225-.486.727.727,0,0,1,.5-.208h4.2a.712.712,0,0,1,.694.695v14.513l5.278-7.951a1.08,1.08,0,0,1,.451-.416,1.156,1.156,0,0,1,.451-.1h4.965Q248.195,428.576,248.195,428.957Z" transform="translate(-64.935 -357.643)" fill="#00364b"/>
    <path id="Trazado_382" data-name="Trazado 382" d="M340.536,466.441q0,.833-.729.833H328.731v.069a5.733,5.733,0,0,0,.174,1.411,3.087,3.087,0,0,0,.59,1.2,2.957,2.957,0,0,0,1.094.826,4.131,4.131,0,0,0,1.719.31q.833,0,1.771-.034l1.857-.069q.92-.035,1.719-.087t1.319-.122h.1q.658,0,.659.558V474a1.155,1.155,0,0,1-.138.629.939.939,0,0,1-.591.315,28.6,28.6,0,0,1-3.263.63,30.249,30.249,0,0,1-3.854.21,11.224,11.224,0,0,1-3.125-.452,7.66,7.66,0,0,1-2.812-1.493,7.46,7.46,0,0,1-2.014-2.76,10.37,10.37,0,0,1-.764-4.219v-2.43a11.477,11.477,0,0,1,.59-3.784,7.812,7.812,0,0,1,1.719-2.882,7.618,7.618,0,0,1,2.76-1.823,10.086,10.086,0,0,1,3.715-.642,9.375,9.375,0,0,1,3.733.695,7.489,7.489,0,0,1,2.691,1.91A8,8,0,0,1,340,460.782a11.809,11.809,0,0,1,.538,3.645Zm-5.486-2.778a4.315,4.315,0,0,0-.833-2.9,2.883,2.883,0,0,0-2.291-.955,2.965,2.965,0,0,0-2.326.973,4.2,4.2,0,0,0-.868,2.882v.139h6.319Z" transform="translate(-139.395 -384.641)" fill="#00364b"/>
    <path id="Trazado_383" data-name="Trazado 383" d="M448.891,447.181a7.425,7.425,0,0,1-5.33,4.635,17.113,17.113,0,0,1-7.812,0,7.821,7.821,0,0,1-3.177-1.58,7.593,7.593,0,0,1-2.135-3.056,13.194,13.194,0,0,1-.781-4.913v-15.45a.613.613,0,0,1,.208-.469.7.7,0,0,1,.486-.19H434.9a.7.7,0,0,1,.486.19.614.614,0,0,1,.209.469v15.45a11.75,11.75,0,0,0,.19,2.274,3.7,3.7,0,0,0,.66,1.562,2.771,2.771,0,0,0,1.25.9,6.653,6.653,0,0,0,3.923,0,2.77,2.77,0,0,0,1.25-.9,3.87,3.87,0,0,0,.677-1.562,10.832,10.832,0,0,0,.208-2.274v-15.45a.613.613,0,0,1,.208-.469.7.7,0,0,1,.486-.19h4.513a.765.765,0,0,1,.5.19.6.6,0,0,1,.225.469v15.45A12.939,12.939,0,0,1,448.891,447.181Z" transform="translate(-225.321 -361.128)" fill="#00b5f1"/>
  </g>
</svg>
