<svg xmlns="http://www.w3.org/2000/svg" width="84.181" height="94.537" viewBox="0 0 84.181 94.537">
  <g id="Grupo_1971" data-name="Grupo 1971" transform="translate(-444.544 -70.971)">
    <path id="Trazado_814" data-name="Trazado 814" d="M461.021,156.987a8.7,8.7,0,0,1-2.147,6.291,8.221,8.221,0,0,1-6.208,2.23,28.639,28.639,0,0,1-3.795-.249,29,29,0,0,1-3.3-.616,1.843,1.843,0,0,1-.849-.367.856.856,0,0,1-.183-.6V140.343a.619.619,0,0,1,.216-.466.7.7,0,0,1,.483-.2h4.027a.68.68,0,0,1,.666.665V146.1q.733-.1,1.482-.166t1.248-.067q4.227,0,6.291,2.3a8.967,8.967,0,0,1,2.064,6.224Zm-5.393-2.575a9.152,9.152,0,0,0-.133-1.61,3.729,3.729,0,0,0-.466-1.294,2.268,2.268,0,0,0-.9-.847,3.143,3.143,0,0,0-1.464-.3q-.6,0-1.365.05t-1.365.116v10.353c.311.045.7.089,1.182.133s.993.066,1.548.066a3.13,3.13,0,0,0,1.464-.3,2.275,2.275,0,0,0,.9-.847,3.729,3.729,0,0,0,.466-1.294,9.358,9.358,0,0,0,.133-1.643Z" fill="#00364c"/>
    <path id="Trazado_815" data-name="Trazado 815" d="M469.276,164.543a.684.684,0,0,1-.666.666h-4.061a.684.684,0,0,1-.666-.666V146.8a.684.684,0,0,1,.666-.666h4.061a.684.684,0,0,1,.666.666Z" fill="#00364c"/>
    <path id="Trazado_816" data-name="Trazado 816" d="M489.314,146.5a.533.533,0,0,1-.133.333l-6.192,8.422,6.158,9.254a.388.388,0,0,1,.067.266.383.383,0,0,1-.433.433h-5.026a1.1,1.1,0,0,1-.45-.083,1.041,1.041,0,0,1-.382-.383l-4.794-7.823v7.59a.692.692,0,0,1-.2.482.616.616,0,0,1-.466.217h-4.028a.743.743,0,0,1-.7-.7V140.343a.619.619,0,0,1,.216-.466.7.7,0,0,1,.483-.2h4.028a.68.68,0,0,1,.665.665v13.914l5.06-7.622a1.041,1.041,0,0,1,.433-.4,1.116,1.116,0,0,1,.432-.1h4.761C489.147,146.135,489.314,146.257,489.314,146.5Z" fill="#00364c"/>
    <path id="Trazado_817" data-name="Trazado 817" d="M506.457,156.554q0,.8-.7.8H495.139v.066a5.463,5.463,0,0,0,.167,1.353,2.954,2.954,0,0,0,.565,1.154,2.835,2.835,0,0,0,1.049.791,3.956,3.956,0,0,0,1.648.3q.8,0,1.7-.033t1.781-.066q.882-.033,1.648-.083c.51-.034.932-.072,1.265-.117h.1q.632,0,.632.534V163.8a1.107,1.107,0,0,1-.133.6.9.9,0,0,1-.566.3,27.52,27.52,0,0,1-3.129.6,28.963,28.963,0,0,1-3.7.2,10.737,10.737,0,0,1-3-.433,7.349,7.349,0,0,1-2.7-1.431,7.145,7.145,0,0,1-1.93-2.646,9.932,9.932,0,0,1-.733-4.045v-2.33a11.025,11.025,0,0,1,.566-3.628,7.482,7.482,0,0,1,1.648-2.762,7.3,7.3,0,0,1,2.646-1.748,9.676,9.676,0,0,1,3.562-.616,8.988,8.988,0,0,1,3.578.666,7.174,7.174,0,0,1,2.58,1.831,7.671,7.671,0,0,1,1.548,2.763,11.346,11.346,0,0,1,.516,3.494Zm-5.26-2.663a4.132,4.132,0,0,0-.8-2.779,2.763,2.763,0,0,0-2.2-.916,2.845,2.845,0,0,0-2.23.933,4.028,4.028,0,0,0-.832,2.762v.133H501.2Z" fill="#00364c"/>
    <path id="Trazado_818" data-name="Trazado 818" d="M527.96,160.632a7.417,7.417,0,0,1-2.064,2.929,7.494,7.494,0,0,1-3.046,1.514,16.407,16.407,0,0,1-7.489,0,7.5,7.5,0,0,1-3.046-1.514,7.269,7.269,0,0,1-2.047-2.929,12.664,12.664,0,0,1-.749-4.71V141.109a.587.587,0,0,1,.2-.45.67.67,0,0,1,.466-.182h4.361a.672.672,0,0,1,.465.182.59.59,0,0,1,.2.45v14.813a11.27,11.27,0,0,0,.183,2.18,3.549,3.549,0,0,0,.633,1.5,2.658,2.658,0,0,0,1.2.865,6.389,6.389,0,0,0,3.761,0,2.66,2.66,0,0,0,1.2-.865,3.717,3.717,0,0,0,.649-1.5,10.362,10.362,0,0,0,.2-2.18V141.109a.589.589,0,0,1,.2-.45.671.671,0,0,1,.466-.182h4.327a.734.734,0,0,1,.483.182.571.571,0,0,1,.216.45v14.813A12.419,12.419,0,0,1,527.96,160.632Z" fill="#00b1ed"/>
    <path id="Trazado_819" data-name="Trazado 819" d="M486.635,70.971A22.728,22.728,0,0,0,463.907,93.7c0,16.774,19.576,39.041,22.728,39.041s22.728-22.267,22.728-39.041A22.728,22.728,0,0,0,486.635,70.971Zm0,40.15A17.422,17.422,0,1,1,504.056,93.7,17.422,17.422,0,0,1,486.635,111.121Z" fill="#00364c"/>
    <g id="Grupo_1970" data-name="Grupo 1970">
      <path id="Trazado_820" data-name="Trazado 820" d="M499.06,97.541a2.688,2.688,0,0,1-.685-2.7v-1.09c0-1.144-.012-1.19-.012-1.19-.251-1.158.055-2.4.679-2.754s.652-1.49.063-2.519l-.637-1.112c-.588-1.03-1.586-1.578-2.218-1.219a3,3,0,0,1-2.838-.686l-2-1.152c-1.1-.453-1.994-1.41-1.994-2.128s-.969-1.306-2.154-1.306h-1.248c-1.186,0-2.155.578-2.155,1.286s-.9,1.645-2,2.084l-2.1,1.149c-.927.739-2.175,1.064-2.774.722s-1.569.22-2.159,1.25l-.635,1.112c-.589,1.029-.591,2.146-.009,2.479s.852,1.555.593,2.71c0,0-.02.1-.02,1.273v1.124c.246,1.159-.021,2.375-.6,2.7s-.56,1.437.028,2.465l.635,1.114c.587,1.029,1.536,1.6,2.108,1.281s1.8.014,2.72.756l2.2,1.246c1.1.444,2,1.36,2,2.037s.97,1.23,2.155,1.23h1.248c1.185,0,2.154-.563,2.154-1.25s.9-1.621,1.992-2.079l2.114-1.249a2.977,2.977,0,0,1,2.781-.722c.6.342,1.575-.217,2.163-1.247l.637-1.113C499.691,99.018,499.671,97.89,499.06,97.541Zm-12.539,3.743a7.642,7.642,0,1,1,7.642-7.643A7.644,7.644,0,0,1,486.521,101.284Z" fill="#00b1ed"/>
      <path id="Trazado_821" data-name="Trazado 821" d="M486.6,90.378a3.188,3.188,0,1,1-3.187,3.188A3.188,3.188,0,0,1,486.6,90.378Z" fill="#00b1ed"/>
    </g>
  </g>
</svg>
