<svg xmlns="http://www.w3.org/2000/svg" width="126.112" height="141.626" viewBox="0 0 126.112 141.626">
  <g id="Grupo_255" data-name="Grupo 255" transform="translate(-78.563 -50.583)">
    <path id="Trazado_367" data-name="Trazado 367" d="M217.238,50.583a34.049,34.049,0,0,0-34.049,34.049c0,25.129,29.327,58.488,34.049,58.488s34.049-33.359,34.049-58.488A34.049,34.049,0,0,0,217.238,50.583Zm0,60.148a26.1,26.1,0,1,1,26.1-26.1A26.1,26.1,0,0,1,217.238,110.731Z" transform="translate(-75.619)" fill="#fff"/>
    <g id="Grupo_254" data-name="Grupo 254" transform="translate(122.299 63.643)">
      <path id="Trazado_368" data-name="Trazado 368" d="M274.249,124.432c-.916-.524-1.379-2.342-1.027-4.038V118.76c0-1.713-.017-1.782-.017-1.782-.376-1.735.082-3.591,1.016-4.127s.977-2.232.095-3.773l-.953-1.666c-.881-1.543-2.377-2.364-3.323-1.826s-2.859.075-4.252-1.028l-3-1.726c-1.642-.677-2.987-2.111-2.987-3.187s-1.452-1.957-3.227-1.957H254.7c-1.775,0-3.227.866-3.227,1.927s-1.351,2.464-3,3.122l-3.143,1.722c-1.388,1.107-3.258,1.594-4.155,1.082s-2.351.33-3.234,1.873l-.952,1.666c-.882,1.541-.886,3.214-.013,3.713s1.277,2.329.889,4.061c0,0-.03.149-.03,1.906v1.685c.369,1.736-.032,3.558-.891,4.048s-.839,2.154.042,3.694l.952,1.668c.879,1.542,2.3,2.4,3.157,1.919s2.689.021,4.076,1.133l3.3,1.868c1.646.664,3,2.038,3,3.052s1.453,1.841,3.228,1.841h1.87c1.775,0,3.227-.842,3.227-1.872s1.341-2.429,2.984-3.114l3.167-1.872c1.388-1.106,3.263-1.593,4.165-1.082s2.359-.325,3.242-1.868l.954-1.667C275.193,126.646,275.165,124.956,274.249,124.432Zm-18.784,5.607a11.448,11.448,0,1,1,11.448-11.449A11.45,11.45,0,0,1,255.465,130.04Z" transform="translate(-236.314 -97.688)" fill="#fff"/>
      <path id="Trazado_369" data-name="Trazado 369" d="M293.355,155.447a4.776,4.776,0,1,1-4.775,4.776A4.776,4.776,0,0,1,293.355,155.447Z" transform="translate(-274.09 -139.434)" fill="#fff"/>
    </g>
    <path id="Trazado_370" data-name="Trazado 370" d="M103.247,447.77q0,6.085-3.216,9.426t-9.3,3.341a45.051,45.051,0,0,1-10.622-1.3,2.771,2.771,0,0,1-1.272-.549,1.285,1.285,0,0,1-.274-.9V422.838a.922.922,0,0,1,.324-.7,1.044,1.044,0,0,1,.724-.3h6.033a1.022,1.022,0,0,1,1,1v8.627q1.1-.149,2.22-.249t1.87-.1q6.332,0,9.425,3.44t3.092,9.325Zm-8.079-3.858a13.785,13.785,0,0,0-.2-2.411,5.6,5.6,0,0,0-.7-1.939,3.406,3.406,0,0,0-1.346-1.268,4.7,4.7,0,0,0-2.194-.447q-.9,0-2.046.075t-2.044.174v15.509q.7.1,1.771.2t2.319.1a4.7,4.7,0,0,0,2.194-.447,3.408,3.408,0,0,0,1.346-1.268,5.6,5.6,0,0,0,.7-1.939,14.1,14.1,0,0,0,.2-2.461Z" transform="translate(0 -268.328)" fill="#fff"/>
    <path id="Trazado_371" data-name="Trazado 371" d="M191.14,484.31a1.022,1.022,0,0,1-1,1h-6.084a1.022,1.022,0,0,1-1-1V457.731a1.023,1.023,0,0,1,1-1h6.084a1.023,1.023,0,0,1,1,1Z" transform="translate(-75.526 -293.548)" fill="#fff"/>
    <path id="Trazado_372" data-name="Trazado 372" d="M255.738,432.063a.8.8,0,0,1-.2.5l-9.276,12.616,9.225,13.863a.689.689,0,0,1-.548,1.047h-7.529a1.618,1.618,0,0,1-.674-.125,1.547,1.547,0,0,1-.573-.574l-7.181-11.719v11.37a1.037,1.037,0,0,1-.3.723.921.921,0,0,1-.7.324h-6.033a1.112,1.112,0,0,1-1.047-1.047v-36.2a.922.922,0,0,1,.324-.7,1.044,1.044,0,0,1,.724-.3h6.033a1.022,1.022,0,0,1,1,1v20.844l7.58-11.419a1.552,1.552,0,0,1,.648-.6,1.662,1.662,0,0,1,.648-.15h7.132Q255.738,431.514,255.738,432.063Z" transform="translate(-110.106 -268.328)" fill="#fff"/>
    <path id="Trazado_373" data-name="Trazado 373" d="M348.109,471.3q0,1.2-1.047,1.2H331.155v.1a8.232,8.232,0,0,0,.249,2.026,4.434,4.434,0,0,0,.848,1.729,4.246,4.246,0,0,0,1.571,1.186,5.935,5.935,0,0,0,2.468.445q1.2,0,2.543-.05t2.668-.1q1.321-.049,2.469-.125t1.895-.175h.15q.946,0,.947.8v3.819a1.66,1.66,0,0,1-.2.9,1.35,1.35,0,0,1-.848.453,41.1,41.1,0,0,1-4.687.9,43.438,43.438,0,0,1-5.535.3,16.123,16.123,0,0,1-4.488-.649,11,11,0,0,1-4.039-2.144,10.713,10.713,0,0,1-2.892-3.964,14.9,14.9,0,0,1-1.1-6.059v-3.491a16.486,16.486,0,0,1,.848-5.435,11.221,11.221,0,0,1,2.468-4.139,10.942,10.942,0,0,1,3.964-2.618,14.485,14.485,0,0,1,5.336-.922,13.466,13.466,0,0,1,5.361,1,10.756,10.756,0,0,1,3.865,2.743,11.487,11.487,0,0,1,2.318,4.139,16.96,16.96,0,0,1,.773,5.236Zm-7.879-3.99a6.2,6.2,0,0,0-1.2-4.164,4.141,4.141,0,0,0-3.291-1.372,4.258,4.258,0,0,0-3.341,1.4,6.037,6.037,0,0,0-1.247,4.139v.2h9.076Z" transform="translate(-176.795 -292.508)" fill="#fff"/>
    <path id="Trazado_374" data-name="Trazado 374" d="M457.282,456.352a10.662,10.662,0,0,1-7.655,6.657,24.58,24.58,0,0,1-11.22,0,11.234,11.234,0,0,1-4.563-2.268,10.909,10.909,0,0,1-3.066-4.389,18.954,18.954,0,0,1-1.122-7.056v-22.19a.881.881,0,0,1,.3-.674,1,1,0,0,1,.7-.274h6.533a1,1,0,0,1,.7.274.882.882,0,0,1,.3.674V449.3a16.879,16.879,0,0,0,.274,3.267,5.318,5.318,0,0,0,.948,2.243,3.979,3.979,0,0,0,1.8,1.3,9.557,9.557,0,0,0,5.635,0,3.978,3.978,0,0,0,1.8-1.3,5.56,5.56,0,0,0,.973-2.243,15.565,15.565,0,0,0,.3-3.267v-22.19a.881.881,0,0,1,.3-.674,1,1,0,0,1,.7-.274h6.482a1.1,1.1,0,0,1,.724.274.854.854,0,0,1,.324.674V449.3A18.582,18.582,0,0,1,457.282,456.352Z" transform="translate(-253.754 -271.449)" fill="#fff"/>
  </g>
</svg>
