<svg xmlns="http://www.w3.org/2000/svg" width="45.456" height="61.769" viewBox="0 0 45.456 61.769">
  <g id="Grupo_2092" data-name="Grupo 2092" transform="translate(-1524.497 1667)">
    <g id="Grupo_1978" data-name="Grupo 1978" transform="translate(1167.784 -1698.903)">
      <g id="Grupo_1977" data-name="Grupo 1977">
        <path id="Trazado_830" data-name="Trazado 830" d="M379.441,31.9a22.728,22.728,0,0,0-22.728,22.728c0,16.774,19.576,39.041,22.728,39.041S402.169,71.4,402.169,54.631A22.728,22.728,0,0,0,379.441,31.9Zm0,40.15a17.422,17.422,0,1,1,17.421-17.422A17.421,17.421,0,0,1,379.441,72.053Z" fill="#00364c"/>
      </g>
    </g>
    <g id="Grupo_1981" data-name="Grupo 1981" transform="translate(1167.784 -1698.903)">
      <path id="Trazado_832" data-name="Trazado 832" d="M391.866,58.473a2.688,2.688,0,0,1-.685-2.7v-1.09c0-1.144-.011-1.19-.011-1.19-.252-1.158.055-2.4.678-2.754s.652-1.49.063-2.519l-.636-1.112c-.589-1.03-1.587-1.578-2.218-1.219a3,3,0,0,1-2.839-.686l-2-1.152c-1.1-.453-1.994-1.409-1.994-2.128s-.969-1.306-2.154-1.306h-1.248c-1.185,0-2.155.578-2.155,1.286s-.9,1.645-2,2.084l-2.1,1.149c-.926.739-2.175,1.064-2.774.722s-1.569.22-2.158,1.25L367,48.224c-.588,1.029-.591,2.146-.009,2.479s.853,1.555.594,2.711c0,0-.021.1-.021,1.272V55.81c.246,1.159-.021,2.375-.594,2.7s-.561,1.437.027,2.465l.636,1.114c.586,1.029,1.535,1.6,2.107,1.281s1.8.014,2.721.756l2.2,1.246c1.1.444,2,1.361,2,2.037s.97,1.23,2.155,1.23h1.248c1.185,0,2.155-.562,2.155-1.25s.895-1.621,1.992-2.079l2.114-1.249a2.975,2.975,0,0,1,2.78-.722c.6.342,1.575-.217,2.164-1.247l.636-1.113C392.5,59.95,392.478,58.822,391.866,58.473Zm-12.538,3.743a7.642,7.642,0,1,1,7.641-7.643A7.644,7.644,0,0,1,379.328,62.216Z" fill="#00b1ed"/>
      <path id="Trazado_833" data-name="Trazado 833" d="M379.4,51.31a3.188,3.188,0,1,1-3.188,3.188A3.188,3.188,0,0,1,379.4,51.31Z" fill="#00b1ed"/>
    </g>
  </g>
</svg>
