<svg xmlns="http://www.w3.org/2000/svg" width="45.456" height="61.769" viewBox="0 0 45.456 61.769">
  <g id="Grupo_2090" data-name="Grupo 2090" transform="translate(-1324.724 1667)">
    <g id="Grupo_1996" data-name="Grupo 1996" transform="translate(1167.784 -1698.903)">
      <g id="Grupo_1987" data-name="Grupo 1987">
        <g id="Grupo_1980" data-name="Grupo 1980">
          <g id="Grupo_1979" data-name="Grupo 1979">
            <path id="Trazado_831" data-name="Trazado 831" d="M179.668,31.9A22.728,22.728,0,0,0,156.94,54.631c0,16.774,19.576,39.041,22.728,39.041S202.4,71.4,202.4,54.631A22.728,22.728,0,0,0,179.668,31.9Zm0,42.839A20.244,20.244,0,1,1,199.913,54.5,20.245,20.245,0,0,1,179.668,74.742Z" fill="#00364c"/>
          </g>
        </g>
      </g>
      <g id="Grupo_1983" data-name="Grupo 1983">
        <path id="Trazado_834" data-name="Trazado 834" d="M195.308,59.467c-.769-.44-1.158-1.968-.863-3.393V54.7c0-1.44-.014-1.5-.014-1.5-.316-1.457.069-3.018.854-3.467s.82-1.876.079-3.17l-.8-1.4c-.74-1.3-2-1.986-2.792-1.535s-2.4.063-3.573-.864l-2.521-1.45c-1.38-.569-2.51-1.774-2.51-2.678s-1.22-1.645-2.712-1.645h-1.571c-1.491,0-2.711.728-2.711,1.619s-1.135,2.071-2.52,2.624l-2.641,1.446c-1.166.931-2.737,1.339-3.491.909s-1.975.277-2.717,1.574l-.8,1.4c-.741,1.294-.744,2.7-.011,3.12s1.073,1.957.747,3.411c0,0-.026.125-.026,1.6v1.416c.31,1.458-.027,2.989-.748,3.4s-.706,1.81.034,3.1l.8,1.4c.739,1.3,1.933,2.02,2.653,1.612s2.259.018,3.424.952l2.776,1.569c1.383.559,2.517,1.712,2.517,2.565s1.221,1.547,2.712,1.547h1.571c1.492,0,2.712-.708,2.712-1.573s1.127-2.041,2.508-2.617l2.661-1.573c1.166-.929,2.741-1.338,3.5-.908s1.983-.273,2.724-1.569l.8-1.4C196.1,61.327,196.077,59.907,195.308,59.467ZM179.668,67.5a13,13,0,1,1,13-13A13,13,0,0,1,179.668,67.5Z" fill="#a6cb12"/>
        <g id="Grupo_1982" data-name="Grupo 1982">
          <path id="Trazado_835" data-name="Trazado 835" d="M179.673,55.3l8.337-4.555v-.635a1.036,1.036,0,0,0-1.033-1.033H172.364a1.035,1.035,0,0,0-1.032,1.033v.582Z" fill="#a6cb12"/>
          <path id="Trazado_836" data-name="Trazado 836" d="M180.026,56.79a.74.74,0,0,1-.713,0l-7.981-4.409v6.671a1.035,1.035,0,0,0,1.032,1.033h14.613a1.036,1.036,0,0,0,1.033-1.033V52.428Z" fill="#a6cb12"/>
        </g>
      </g>
    </g>
  </g>
</svg>
