<svg xmlns="http://www.w3.org/2000/svg" xmlns:xlink="http://www.w3.org/1999/xlink" width="62.88" height="79.2" viewBox="0 0 62.88 79.2">
  <defs>
    <pattern id="pattern" preserveAspectRatio="none" width="100%" height="100%" viewBox="0 0 64 80">
      <image width="64" height="80" xlink:href="Grupo%202093-image.png"/>
    </pattern>
  </defs>
  <g id="Grupo_2093" data-name="Grupo 2093" transform="translate(-1316 1572.687)">
    <g id="Grupo_1969" data-name="Grupo 1969" transform="translate(1167.784 -1678.903)">
      <rect id="Rectángulo_862" data-name="Rectángulo 862" width="62.88" height="79.2" transform="translate(148.216 106.216)" opacity="0.3" fill="url(#pattern)" style="mix-blend-mode: multiply;isolation: isolate"/>
    </g>
    <g id="Grupo_1968" data-name="Grupo 1968" transform="translate(1167.784 -1678.903)">
      <path id="Trazado_813" data-name="Trazado 813" d="M179.668,114.887a22.728,22.728,0,0,0-22.728,22.728c0,16.774,19.576,39.042,22.728,39.042S202.4,154.389,202.4,137.615A22.728,22.728,0,0,0,179.668,114.887Zm0,42.84a20.245,20.245,0,1,1,20.245-20.245A20.245,20.245,0,0,1,179.668,157.727Z" fill="#fff"/>
    </g>
    <g id="Grupo_2030" data-name="Grupo 2030" transform="translate(-730 -746)">
      <g id="Grupo_1974" data-name="Grupo 1974" transform="translate(1897.784 -932.903)">
        <path id="Trazado_824" data-name="Trazado 824" d="M195.308,142.451c-.769-.44-1.158-1.967-.863-3.393v-1.373c0-1.439-.014-1.5-.014-1.5-.316-1.457.069-3.017.854-3.467s.82-1.875.079-3.17l-.8-1.4c-.74-1.3-2-1.986-2.792-1.535s-2.4.063-3.573-.864l-2.521-1.45c-1.38-.569-2.51-1.773-2.51-2.678s-1.22-1.644-2.712-1.644h-1.571c-1.491,0-2.711.728-2.711,1.619s-1.135,2.07-2.52,2.623l-2.641,1.447c-1.166.93-2.737,1.339-3.491.909s-1.975.277-2.717,1.573l-.8,1.4c-.741,1.295-.744,2.7-.011,3.12s1.073,1.957.747,3.412c0,0-.026.125-.026,1.6V139.1c.31,1.458-.027,2.989-.748,3.4s-.706,1.81.034,3.1l.8,1.4c.739,1.3,1.933,2.02,2.653,1.613s2.259.017,3.424.951l2.776,1.57c1.383.558,2.517,1.712,2.517,2.564s1.221,1.547,2.712,1.547h1.571c1.492,0,2.712-.707,2.712-1.573s1.127-2.041,2.508-2.616l2.661-1.573c1.166-.93,2.741-1.339,3.5-.909s1.983-.273,2.724-1.569l.8-1.4C196.1,144.311,196.077,142.891,195.308,142.451Zm-15.64,8.029a13,13,0,1,1,13-13A13,13,0,0,1,179.668,150.48Z" fill="#a6cb12"/>
        <g id="Grupo_1973" data-name="Grupo 1973">
          <path id="Trazado_825" data-name="Trazado 825" d="M179.673,138.28l8.337-4.555v-.635a1.036,1.036,0,0,0-1.033-1.033H172.364a1.035,1.035,0,0,0-1.032,1.033v.582Z" fill="#a6cb12"/>
          <path id="Trazado_826" data-name="Trazado 826" d="M180.026,139.774a.74.74,0,0,1-.713,0l-7.981-4.409v6.671a1.035,1.035,0,0,0,1.032,1.033h14.613a1.036,1.036,0,0,0,1.033-1.033v-6.623Z" fill="#a6cb12"/>
        </g>
      </g>
    </g>
  </g>
</svg>
