<svg xmlns="http://www.w3.org/2000/svg" xmlns:xlink="http://www.w3.org/1999/xlink" width="62.64" height="79.2" viewBox="0 0 62.64 79.2">
  <defs>
    <pattern id="pattern" preserveAspectRatio="none" width="100%" height="100%" viewBox="0 0 64 80">
      <image width="64" height="80" xlink:href="Grupo%202036-image.png"/>
    </pattern>
  </defs>
  <g id="Grupo_2036" data-name="Grupo 2036" transform="translate(-2061.48 868.687)">
    <g id="Grupo_1976" data-name="Grupo 1976" transform="translate(1816.784 -974.903)">
      <rect id="Rectángulo_863" data-name="Rectángulo 863" width="62.64" height="79.2" transform="translate(244.696 106.216)" opacity="0.3" fill="url(#pattern)" style="mix-blend-mode: multiply;isolation: isolate"/>
      <g id="Grupo_1975" data-name="Grupo 1975">
        <path id="Trazado_827" data-name="Trazado 827" d="M276.034,114.887a22.728,22.728,0,0,0-22.728,22.728c0,16.774,19.576,39.042,22.728,39.042s22.728-22.268,22.728-39.042A22.728,22.728,0,0,0,276.034,114.887Zm0,42.84a20.245,20.245,0,1,1,20.245-20.245A20.245,20.245,0,0,1,276.034,157.727Z" fill="#fff"/>
      </g>
    </g>
    <path id="Trazado_828" data-name="Trazado 828" d="M291.675,142.451c-.77-.44-1.159-1.967-.863-3.393v-1.373c0-1.439-.014-1.5-.014-1.5-.317-1.457.069-3.017.853-3.467s.821-1.875.08-3.17l-.8-1.4c-.741-1.3-2-1.986-2.792-1.535s-2.4.063-3.573-.864l-2.521-1.45c-1.38-.569-2.51-1.773-2.51-2.678s-1.22-1.644-2.712-1.644h-1.571c-1.492,0-2.712.728-2.712,1.619s-1.135,2.07-2.519,2.623l-2.641,1.447c-1.166.93-2.738,1.339-3.491.909s-1.976.277-2.717,1.573l-.8,1.4c-.741,1.295-.745,2.7-.011,3.12s1.072,1.957.747,3.412c0,0-.026.125-.026,1.6V139.1c.31,1.458-.027,2.989-.749,3.4s-.7,1.81.035,3.1l.8,1.4c.738,1.3,1.933,2.02,2.652,1.613s2.26.017,3.425.951l2.776,1.57c1.383.558,2.517,1.712,2.517,2.564s1.22,1.547,2.712,1.547h1.571c1.492,0,2.712-.707,2.712-1.573s1.127-2.041,2.507-2.616l2.661-1.573c1.166-.93,2.742-1.339,3.5-.909s1.982-.273,2.723-1.569l.8-1.4C292.468,144.311,292.444,142.891,291.675,142.451Zm-15.641,8.029a13,13,0,1,1,13-13A13,13,0,0,1,276.034,150.48Z" transform="translate(1816.784 -974.903)" fill="#ffa41b"/>
    <path id="Trazado_829" data-name="Trazado 829" d="M283.509,139.766a2.151,2.151,0,1,1,0-4.3h2.643a4.2,4.2,0,0,0-7.472.524h-5.292a4.2,4.2,0,0,0-7.471-.524h2.643a2.151,2.151,0,1,1,0,4.3h-2.643a4.2,4.2,0,0,0,7.471-.524h5.292a4.2,4.2,0,0,0,7.472.524Z" transform="translate(1816.784 -974.903)" fill="#ffa41b"/>
  </g>
</svg>
