<svg xmlns="http://www.w3.org/2000/svg" width="45.456" height="61.769" viewBox="0 0 45.456 61.769">
  <g id="Grupo_2091" data-name="Grupo 2091" transform="translate(-1421.09 1667)">
    <g id="Grupo_1985" data-name="Grupo 1985" transform="translate(1167.784 -1698.903)">
      <g id="Grupo_1984" data-name="Grupo 1984">
        <path id="Trazado_837" data-name="Trazado 837" d="M276.034,31.9a22.728,22.728,0,0,0-22.728,22.728c0,16.774,19.576,39.041,22.728,39.041S298.762,71.4,298.762,54.631A22.728,22.728,0,0,0,276.034,31.9Zm0,42.839A20.244,20.244,0,1,1,296.279,54.5,20.245,20.245,0,0,1,276.034,74.742Z" fill="#00364c"/>
      </g>
    </g>
    <g id="Grupo_1990" data-name="Grupo 1990" transform="translate(1167.784 -1698.903)">
      <path id="Trazado_838" data-name="Trazado 838" d="M291.675,59.467c-.77-.44-1.159-1.968-.863-3.393V54.7c0-1.44-.014-1.5-.014-1.5-.317-1.457.069-3.018.853-3.467s.821-1.876.08-3.17l-.8-1.4c-.741-1.3-2-1.986-2.792-1.535s-2.4.063-3.573-.864l-2.521-1.45c-1.38-.569-2.51-1.774-2.51-2.678s-1.22-1.645-2.712-1.645h-1.571c-1.492,0-2.712.728-2.712,1.619s-1.135,2.071-2.519,2.624l-2.641,1.446c-1.166.931-2.738,1.339-3.491.909s-1.976.277-2.717,1.574l-.8,1.4c-.741,1.294-.745,2.7-.011,3.12s1.072,1.957.747,3.411c0,0-.026.125-.026,1.6v1.416c.31,1.458-.027,2.989-.749,3.4s-.7,1.81.035,3.1l.8,1.4c.738,1.3,1.933,2.02,2.652,1.612s2.26.018,3.425.952l2.776,1.569c1.383.559,2.517,1.712,2.517,2.565s1.22,1.547,2.712,1.547h1.571c1.492,0,2.712-.708,2.712-1.573s1.127-2.041,2.507-2.617L284.7,66.5c1.166-.929,2.742-1.338,3.5-.908s1.982-.273,2.723-1.569l.8-1.4C292.468,61.327,292.444,59.907,291.675,59.467ZM276.034,67.5a13,13,0,1,1,13-13A13,13,0,0,1,276.034,67.5Z" fill="#ffa41b"/>
      <path id="Trazado_839" data-name="Trazado 839" d="M283.509,56.782a2.151,2.151,0,1,1,0-4.3h2.643a4.2,4.2,0,0,0-7.472.524h-5.292a4.2,4.2,0,0,0-7.471-.524h2.643a2.151,2.151,0,1,1,0,4.3h-2.643a4.2,4.2,0,0,0,7.471-.524h5.292a4.2,4.2,0,0,0,7.472.524Z" fill="#ffa41b"/>
    </g>
  </g>
</svg>
