<svg xmlns="http://www.w3.org/2000/svg" xmlns:xlink="http://www.w3.org/1999/xlink" width="62.64" height="79.2" viewBox="0 0 62.64 79.2">
  <defs>
    <pattern id="pattern" preserveAspectRatio="none" width="100%" height="100%" viewBox="0 0 63 80">
      <image width="63" height="80" xlink:href="Grupo%202011-image.png"/>
    </pattern>
  </defs>
  <g id="Grupo_2011" data-name="Grupo 2011" transform="translate(-2164.92 889.687)">
    <g id="Grupo_1967" data-name="Grupo 1967" transform="translate(1816.784 -995.903)">
      <rect id="Rectángulo_861" data-name="Rectángulo 861" width="62.64" height="79.2" transform="translate(348.136 106.216)" opacity="0.3" fill="url(#pattern)" style="mix-blend-mode: multiply;isolation: isolate"/>
      <g id="Grupo_1966" data-name="Grupo 1966">
        <path id="Trazado_812" data-name="Trazado 812" d="M379.441,114.887a22.728,22.728,0,0,0-22.728,22.728c0,16.774,19.576,39.042,22.728,39.042s22.728-22.268,22.728-39.042A22.728,22.728,0,0,0,379.441,114.887Zm0,40.15a17.422,17.422,0,1,1,17.421-17.422A17.421,17.421,0,0,1,379.441,155.037Z" fill="#fff"/>
      </g>
    </g>
    <g id="Grupo_1972" data-name="Grupo 1972" transform="translate(1816.784 -995.903)">
      <path id="Trazado_822" data-name="Trazado 822" d="M391.866,141.457a2.687,2.687,0,0,1-.685-2.7v-1.091c0-1.144-.011-1.189-.011-1.189-.252-1.158.055-2.4.678-2.755s.652-1.49.063-2.518l-.636-1.113c-.589-1.029-1.587-1.577-2.218-1.219a3,3,0,0,1-2.839-.686l-2-1.152c-1.1-.452-1.994-1.409-1.994-2.128s-.969-1.306-2.154-1.306h-1.248c-1.185,0-2.155.578-2.155,1.286s-.9,1.645-2,2.084l-2.1,1.149c-.926.739-2.175,1.064-2.774.723s-1.569.22-2.158,1.249L367,131.209c-.588,1.028-.591,2.145-.009,2.478s.853,1.555.594,2.711c0,0-.021.1-.021,1.272v1.125c.246,1.158-.021,2.375-.594,2.7s-.561,1.438.027,2.466l.636,1.113c.586,1.03,1.535,1.6,2.107,1.281s1.8.014,2.721.756l2.2,1.247c1.1.443,2,1.36,2,2.037s.97,1.229,2.155,1.229h1.248c1.185,0,2.155-.562,2.155-1.25s.895-1.621,1.992-2.078l2.114-1.25a2.977,2.977,0,0,1,2.78-.722c.6.343,1.575-.217,2.164-1.246l.636-1.113C392.5,142.935,392.478,141.807,391.866,141.457ZM379.328,145.2a7.642,7.642,0,1,1,7.641-7.642A7.643,7.643,0,0,1,379.328,145.2Z" fill="#00b1ed"/>
      <path id="Trazado_823" data-name="Trazado 823" d="M379.4,134.294a3.188,3.188,0,1,1-3.188,3.188A3.188,3.188,0,0,1,379.4,134.294Z" fill="#00b1ed"/>
    </g>
  </g>
</svg>
